<svg width="504" height="388" viewBox="0 0 504 388" fill="none" xmlns="http://www.w3.org/2000/svg">
<g clip-path="url(#clip0_18_72)">
<path d="M153.477 203.225C150.143 203.229 146.947 204.555 144.59 206.912C142.233 209.269 140.907 212.465 140.904 215.798C136.123 250.995 134.527 286.55 136.134 322.033C136.229 324.299 136.335 326.371 136.458 328.37C136.636 331.672 136.863 335.158 137.131 338.732C137.285 340.84 137.447 342.956 137.625 345.063C137.923 348.497 138.25 351.985 138.598 355.432C138.817 357.537 139.044 359.653 139.287 361.76C139.753 365.899 140.28 370.142 140.9 374.731C140.894 378.073 142.215 381.281 144.574 383.649C146.932 386.017 150.135 387.351 153.477 387.359H364.378C367.712 387.355 370.907 386.029 373.264 383.672C375.622 381.315 376.947 378.119 376.951 374.786L376.961 374.698C377.9 370.418 378.775 366.057 379.562 361.734C379.982 359.455 380.345 357.385 380.672 355.406C381.264 351.804 381.79 348.317 382.235 345.043C382.54 342.845 382.815 340.716 383.054 338.714C383.446 335.436 383.802 332.049 384.139 328.358C384.324 326.351 384.494 324.279 384.658 322.023V322.022C387.237 286.457 384.644 250.706 376.961 215.885L376.951 215.798C376.947 212.465 375.622 209.269 373.264 206.912C370.907 204.555 367.712 203.229 364.378 203.225L153.477 203.225Z" fill="white"/>
<path d="M267.115 257.051C221.418 257.051 172.996 252.899 109.621 244.591H109.615C106.329 244.587 103.161 243.37 100.718 241.174C98.2741 238.977 96.7273 235.956 96.3736 232.69C96.3159 232.199 96.2879 231.705 96.29 231.21V193.086C96.2885 193.004 96.2922 192.923 96.3011 192.842C96.3724 189.339 97.8115 186.003 100.311 183.547C102.81 181.092 106.17 179.712 109.674 179.702C219.932 164.71 286.909 164.712 408.231 179.705H408.236C411.738 179.728 415.092 181.12 417.581 183.583C420.07 186.046 421.497 189.384 421.557 192.885C421.564 192.952 421.567 193.019 421.565 193.086V231.21C421.567 231.706 421.539 232.202 421.481 232.694C421.122 235.969 419.565 238.995 417.11 241.192C414.655 243.389 411.475 244.601 408.181 244.595C355.764 252.898 312.802 257.051 267.115 257.051Z" fill="#9ABC0E"/>
<path d="M274.446 283.53H246.719C243.19 283.526 239.807 282.122 237.312 279.627C234.816 277.132 233.413 273.749 233.409 270.22V169.489C233.413 165.96 234.816 162.576 237.312 160.081C239.807 157.586 243.19 156.182 246.719 156.178H274.446C277.975 156.182 281.358 157.586 283.853 160.081C286.349 162.576 287.752 165.96 287.756 169.489V270.22C287.752 273.749 286.349 277.132 283.853 279.627C281.358 282.123 277.975 283.526 274.446 283.53Z" fill="white"/>
<path d="M337.394 136.903C337.193 135.015 336.84 133.146 336.337 131.314C335.794 129.479 335.107 127.69 334.282 125.964C331.324 119.617 326.336 114.437 320.104 111.243C312.37 107.435 303.524 107.124 295.208 108.958C288.218 110.524 281.654 113.597 275.975 117.962C273.031 120.181 270.341 122.718 267.954 125.528C265.49 128.484 260.907 136.606 260.577 137.358C257.985 131.475 254.267 126.156 249.632 121.702C244.244 116.588 237.813 112.701 230.78 110.309C227.041 109.049 223.16 108.26 219.226 107.96C215.063 107.614 210.871 107.98 206.831 109.041C199.574 111.074 193.297 115.662 189.158 121.96C185.214 127.814 183.278 134.789 183.639 141.838C183.838 145.397 184.606 148.901 185.912 152.217C186.612 154.013 187.442 155.755 188.396 157.429C189.383 159.083 190.487 160.664 191.699 162.161C196.454 167.997 202.859 172.262 210.077 174.399C217.783 176.781 225.958 176.859 233.882 175.74C242.019 174.592 249.852 171.958 257.516 169.073C258.538 168.688 259.556 168.292 260.576 167.9C267.389 170.521 274.26 173.049 281.392 174.654C289.416 176.591 297.744 176.925 305.897 175.636C313.496 174.389 320.562 170.938 326.217 165.711C331.449 160.786 335.111 154.427 336.744 147.43C337.55 143.982 337.77 140.424 337.394 136.903ZM231.765 167.904C227.367 168.468 222.917 168.494 218.513 167.982C215.356 167.524 212.264 166.701 209.297 165.529C202.305 162.617 196.731 157.083 193.769 150.112C192.884 147.914 192.254 145.622 191.89 143.281C191.657 141.198 191.657 139.096 191.889 137.013C192.234 134.821 192.825 132.676 193.651 130.617C194.544 128.614 195.653 126.715 196.959 124.953C198.225 123.377 199.656 121.94 201.227 120.667C202.716 119.565 204.318 118.626 206.007 117.866C208.022 117.078 210.119 116.517 212.259 116.193C215.157 115.872 218.083 115.895 220.975 116.261C224.417 116.793 227.786 117.721 231.014 119.029C234.448 120.519 237.693 122.411 240.682 124.665C243.447 126.856 245.953 129.354 248.152 132.113C250.33 135.009 252.156 138.153 253.592 141.479C254.987 144.95 255.968 148.573 256.513 152.274L256.519 152.328C256.306 154.188 256.2 156.058 256.2 157.929C256.202 158.65 256.233 159.37 256.269 160.09C255.927 160.42 255.641 160.804 255.424 161.227C249.774 163.444 243.982 165.281 238.087 166.726C235.998 167.208 233.89 167.601 231.765 167.904ZM329.279 143.281C328.916 145.623 328.285 147.915 327.4 150.113C324.452 157.093 318.874 162.632 311.872 165.529C308.906 166.701 305.813 167.524 302.657 167.982C298.244 168.495 293.786 168.468 289.38 167.901C281.554 166.782 274.005 164.312 266.62 161.555C266.316 161.442 266.015 161.322 265.711 161.208C265.505 160.791 265.232 160.411 264.902 160.083C265.033 157.471 264.952 154.853 264.66 152.254C265.206 148.56 266.185 144.944 267.578 141.479C269.014 138.153 270.84 135.009 273.017 132.113C275.216 129.355 277.723 126.856 280.488 124.665C283.476 122.411 286.721 120.519 290.155 119.029C293.383 117.721 296.752 116.793 300.195 116.261C303.087 115.895 306.013 115.872 308.911 116.193C311.05 116.517 313.147 117.078 315.163 117.866C316.852 118.626 318.454 119.565 319.943 120.667C321.514 121.94 322.945 123.377 324.211 124.953C325.516 126.715 326.626 128.614 327.519 130.617C328.345 132.676 328.936 134.821 329.281 137.013C329.513 139.096 329.512 141.198 329.279 143.281Z" fill="white"/>
<path d="M176.189 287.991C178.877 287.991 181.056 285.812 181.056 283.125C181.056 280.437 178.877 278.258 176.189 278.258C173.501 278.258 171.322 280.437 171.322 283.125C171.322 285.812 173.501 287.991 176.189 287.991Z" fill="#9ABC0E"/>
<path d="M211.069 275.824C213.757 275.824 215.936 273.645 215.936 270.957C215.936 268.269 213.757 266.09 211.069 266.09C208.381 266.09 206.202 268.269 206.202 270.957C206.202 273.645 208.381 275.824 211.069 275.824Z" fill="#9ABC0E"/>
<path d="M195.657 313.949C198.345 313.949 200.524 311.769 200.524 309.082C200.524 306.394 198.345 304.215 195.657 304.215C192.969 304.215 190.79 306.394 190.79 309.082C190.79 311.769 192.969 313.949 195.657 313.949Z" fill="#9ABC0E"/>
<path d="M340.043 287.991C342.731 287.991 344.91 285.812 344.91 283.125C344.91 280.437 342.731 278.258 340.043 278.258C337.355 278.258 335.176 280.437 335.176 283.125C335.176 285.812 337.355 287.991 340.043 287.991Z" fill="#9ABC0E"/>
<path d="M305.163 275.824C307.851 275.824 310.03 273.645 310.03 270.957C310.03 268.269 307.851 266.09 305.163 266.09C302.476 266.09 300.297 268.269 300.297 270.957C300.297 273.645 302.476 275.824 305.163 275.824Z" fill="#9ABC0E"/>
<path d="M320.576 313.949C323.263 313.949 325.442 311.769 325.442 309.082C325.442 306.394 323.263 304.215 320.576 304.215C317.888 304.215 315.709 306.394 315.709 309.082C315.709 311.769 317.888 313.949 320.576 313.949Z" fill="#9ABC0E"/>
<path d="M344.099 373.163C346.787 373.163 348.966 370.984 348.966 368.296C348.966 365.608 346.787 363.429 344.099 363.429C341.411 363.429 339.232 365.608 339.232 368.296C339.232 370.984 341.411 373.163 344.099 373.163Z" fill="#9ABC0E"/>
<path d="M356.267 338.283C358.954 338.283 361.133 336.104 361.133 333.416C361.133 330.728 358.954 328.549 356.267 328.549C353.579 328.549 351.4 330.728 351.4 333.416C351.4 336.104 353.579 338.283 356.267 338.283Z" fill="#9ABC0E"/>
<path d="M318.142 353.695C320.83 353.695 323.009 351.516 323.009 348.828C323.009 346.14 320.83 343.961 318.142 343.961C315.454 343.961 313.275 346.14 313.275 348.828C313.275 351.516 315.454 353.695 318.142 353.695Z" fill="#9ABC0E"/>
<path d="M204.58 373.163C207.268 373.163 209.447 370.984 209.447 368.296C209.447 365.608 207.268 363.429 204.58 363.429C201.892 363.429 199.713 365.608 199.713 368.296C199.713 370.984 201.892 373.163 204.58 373.163Z" fill="#9ABC0E"/>
<path d="M216.747 338.283C219.435 338.283 221.614 336.104 221.614 333.416C221.614 330.728 219.435 328.549 216.747 328.549C214.059 328.549 211.88 330.728 211.88 333.416C211.88 336.104 214.059 338.283 216.747 338.283Z" fill="#9ABC0E"/>
<path d="M178.623 353.695C181.311 353.695 183.49 351.516 183.49 348.828C183.49 346.14 181.311 343.961 178.623 343.961C175.935 343.961 173.756 346.14 173.756 348.828C173.756 351.516 175.935 353.695 178.623 353.695Z" fill="#9ABC0E"/>
<path d="M206.202 94.1244C209.786 94.1244 212.691 91.2191 212.691 87.6352C212.691 84.0512 209.786 81.1459 206.202 81.1459C202.618 81.1459 199.713 84.0512 199.713 87.6352C199.713 91.2191 202.618 94.1244 206.202 94.1244Z" fill="#9ABC0E"/>
<path d="M33.4251 285.558C37.0091 285.558 39.9144 282.653 39.9144 279.069C39.9144 275.485 37.0091 272.579 33.4251 272.579C29.8412 272.579 26.9359 275.485 26.9359 279.069C26.9359 282.653 29.8412 285.558 33.4251 285.558Z" fill="#9ABC0E"/>
<path d="M479.563 232.833C483.147 232.833 486.052 229.927 486.052 226.343C486.052 222.759 483.147 219.854 479.563 219.854C475.979 219.854 473.073 222.759 473.073 226.343C473.073 229.927 475.979 232.833 479.563 232.833Z" fill="#9ABC0E"/>
<path d="M26.9359 122.515C30.5198 122.515 33.4251 119.61 33.4251 116.026C33.4251 112.442 30.5198 109.536 26.9359 109.536C23.3519 109.536 20.4466 112.442 20.4466 116.026C20.4466 119.61 23.3519 122.515 26.9359 122.515Z" fill="#E6E6E6"/>
<path d="M428.46 307.459C432.044 307.459 434.949 304.554 434.949 300.97C434.949 297.386 432.044 294.481 428.46 294.481C424.876 294.481 421.97 297.386 421.97 300.97C421.97 304.554 424.876 307.459 428.46 307.459Z" fill="#E6E6E6"/>
<path d="M441.438 110.348C445.022 110.348 447.927 107.442 447.927 103.858C447.927 100.274 445.022 97.369 441.438 97.369C437.854 97.369 434.949 100.274 434.949 103.858C434.949 107.442 437.854 110.348 441.438 110.348Z" fill="#E6E6E6"/>
<path d="M156.905 213.557C156.345 214.444 154.984 214.315 154.221 213.76C153.16 212.99 153.504 211.507 154.234 210.63C156.554 207.845 160.392 210.786 160.91 213.552C161.102 214.901 160.894 216.277 160.312 217.508C159.73 218.74 158.799 219.774 157.635 220.482C154.987 222.051 151.549 221.264 149.272 219.386C144.524 215.47 145.817 207.627 151.091 204.793C154.457 202.985 158.712 203.779 162.028 205.294C165.76 206.999 168.97 209.613 172.422 211.791C179.995 216.532 188.562 219.457 197.454 220.339C199.01 220.498 198.999 218.063 197.454 217.905C192.526 217.396 187.689 216.231 183.07 214.442C178.5 212.59 174.163 210.209 170.146 207.348C166.082 204.563 161.836 201.856 156.806 201.396C154.777 201.159 152.72 201.464 150.847 202.279C148.973 203.094 147.349 204.391 146.139 206.038C145.062 207.511 144.342 209.214 144.034 211.013C143.726 212.811 143.838 214.657 144.362 216.404C144.995 218.232 146.1 219.86 147.565 221.121C149.03 222.383 150.804 223.234 152.705 223.587C154.536 223.933 156.428 223.699 158.119 222.918C159.81 222.137 161.215 220.847 162.138 219.229C163.989 216.028 163.929 211.727 161.133 209.073C160.331 208.258 159.328 207.671 158.225 207.371C157.122 207.071 155.96 207.069 154.856 207.365C153.839 207.709 152.944 208.341 152.281 209.185C151.618 210.029 151.215 211.048 151.122 212.118C150.852 216.274 156.752 218.352 159.007 214.785C159.846 213.457 157.741 212.235 156.905 213.557Z" fill="white"/>
<path d="M365.005 213.556C365.566 214.444 366.926 214.315 367.69 213.76C368.75 212.99 368.407 211.507 367.677 210.63C365.356 207.845 361.519 210.786 361.001 213.552C360.808 214.901 361.016 216.276 361.598 217.508C362.18 218.74 363.111 219.774 364.276 220.482C366.923 222.051 370.362 221.264 372.638 219.386C377.387 215.469 376.094 207.627 370.82 204.793C367.454 202.985 363.198 203.779 359.883 205.293C356.15 206.999 352.941 209.613 349.489 211.791C341.915 216.532 333.348 219.457 324.457 220.339C322.9 220.497 322.911 218.063 324.457 217.905C329.384 217.396 334.221 216.231 338.84 214.442C343.41 212.59 347.748 210.209 351.765 207.348C355.829 204.562 360.075 201.856 365.104 201.396C367.134 201.159 369.19 201.464 371.064 202.279C372.938 203.094 374.562 204.391 375.772 206.038C376.848 207.511 377.569 209.214 377.877 211.013C378.185 212.811 378.072 214.657 377.548 216.404C376.916 218.232 375.811 219.859 374.346 221.121C372.88 222.383 371.107 223.234 369.205 223.587C367.375 223.933 365.482 223.699 363.792 222.918C362.101 222.137 360.696 220.847 359.773 219.229C357.922 216.028 357.982 211.727 360.778 209.072C361.579 208.258 362.583 207.67 363.686 207.37C364.788 207.071 365.951 207.069 367.055 207.365C368.072 207.709 368.966 208.341 369.629 209.185C370.293 210.029 370.695 211.048 370.789 212.118C371.058 216.273 365.159 218.352 362.904 214.785C362.065 213.457 364.17 212.235 365.005 213.556Z" fill="white"/>
</g>
<defs>
<clipPath id="clip0_18_72">
<rect width="503.642" height="387.414" fill="white"/>
</clipPath>
</defs>
</svg>
