<svg width="504" height="388" viewBox="0 0 504 388" fill="none" xmlns="http://www.w3.org/2000/svg">
<g clip-path="url(#clip0_10_7)">
<path d="M337.513 109.085C348.317 80.036 373.844 54.9355 404.693 51.9498C386.147 80.0924 378.152 113.888 382.124 147.358C383.703 160.26 386.802 174.446 379.847 185.427C375.52 192.26 367.893 196.467 360.031 198.365C352.169 200.263 343.977 200.116 335.89 199.958L334.08 200.852C328.392 170.385 326.709 138.135 337.513 109.085Z" fill="#F0F0F0"/>
<path d="M404.843 52.5827C383.813 67.2746 367.947 88.2194 359.498 112.442C357.719 117.642 356.368 123.073 356.29 128.595C356.255 133.978 357.663 139.273 360.367 143.928C362.8 148.319 365.798 152.529 367.122 157.436C368.517 162.607 367.38 167.839 364.529 172.307C361.042 177.774 355.798 181.662 350.538 185.286C344.698 189.309 338.568 193.396 334.994 199.716C334.561 200.482 333.398 199.765 333.831 199.001C340.048 188.004 353.096 184.01 361.078 174.669C364.803 170.31 367.237 164.803 366.085 158.999C365.078 153.924 361.991 149.579 359.488 145.154C356.86 140.508 355.144 135.686 354.944 130.311C354.739 124.811 355.881 119.317 357.518 114.094C361.32 102.278 366.957 91.1326 374.221 81.0672C382.447 69.5336 392.586 59.4922 404.199 51.3776C404.918 50.8756 405.557 52.084 404.843 52.5827Z" fill="white"/>
<path d="M361.759 104.482C357.888 102.513 354.842 99.2318 353.166 95.2244C351.491 91.217 351.294 86.7445 352.612 82.6055C352.881 81.769 354.194 82.1484 353.924 82.9861C352.69 86.838 352.874 91.0042 354.442 94.7327C356.01 98.4612 358.859 101.506 362.475 103.319C363.26 103.713 362.54 104.875 361.759 104.482Z" fill="white"/>
<path d="M358.839 141.864C367.306 139.19 374.454 133.423 378.858 125.712C379.294 124.948 380.457 125.664 380.022 126.428C375.424 134.443 367.973 140.429 359.156 143.193C358.316 143.456 358.003 142.125 358.839 141.864Z" fill="white"/>
<path d="M383.383 71.0847C384.722 72.1588 386.307 72.8835 387.995 73.1936C389.684 73.5037 391.423 73.3895 393.057 72.8614C393.893 72.5881 394.205 73.9186 393.373 74.1902C391.566 74.7652 389.645 74.8889 387.779 74.5505C385.913 74.212 384.158 73.4216 382.667 72.2484C382.517 72.1496 382.411 71.9975 382.369 71.8229C382.328 71.6484 382.354 71.4646 382.443 71.3089C382.539 71.1553 382.691 71.0456 382.867 71.0036C383.043 70.9616 383.228 70.9908 383.383 71.0847Z" fill="white"/>
<path d="M479.05 125.997C478.533 126.182 478.015 126.368 477.494 126.564C470.547 129.095 463.817 132.186 457.371 135.806C456.868 136.078 456.363 136.361 455.869 136.647C440.431 145.535 426.778 157.212 415.603 171.084C411.161 176.608 407.146 182.462 403.592 188.595C398.685 197.066 394.039 206.64 386.832 212.813C386.087 213.466 385.303 214.071 384.483 214.627L335.311 202.991C335.212 202.909 335.111 202.837 335.012 202.755L333.027 202.38C333.188 202.051 333.362 201.713 333.524 201.384C333.616 201.192 333.72 201.004 333.813 200.812C333.878 200.686 333.944 200.559 333.996 200.441C334.017 200.399 334.039 200.357 334.058 200.325C334.11 200.207 334.17 200.103 334.219 199.996C335.188 198.105 336.172 196.217 337.17 194.333C337.173 194.322 337.173 194.322 337.187 194.313C344.833 179.975 353.744 166.149 364.469 154.115C364.792 153.753 365.117 153.38 365.462 153.023C370.327 147.625 375.625 142.635 381.303 138.1C384.42 135.627 387.66 133.314 391.011 131.169C399.68 125.642 409.164 121.514 419.116 118.935C438.956 113.796 460.218 115.06 477.721 125.208C478.168 125.468 478.605 125.726 479.05 125.997Z" fill="#F0F0F0"/>
<path d="M478.792 126.595C453.155 125.664 427.877 132.834 406.547 147.088C401.996 150.17 397.648 153.692 394.261 158.054C390.992 162.331 388.928 167.406 388.284 172.751C387.583 177.722 387.442 182.889 385.545 187.603C383.546 192.573 379.488 196.065 374.522 197.917C368.446 200.182 361.918 200.129 355.537 199.855C348.451 199.552 341.096 199.124 334.437 202.019C333.631 202.37 333.133 201.097 333.939 200.747C345.524 195.71 358.347 200.377 370.344 197.724C375.943 196.487 381.202 193.555 383.777 188.227C386.028 183.569 386.178 178.241 386.844 173.201C387.544 167.91 389.076 163.026 392.153 158.613C395.3 154.099 399.52 150.4 403.972 147.215C414.122 140.07 425.332 134.565 437.192 130.901C450.705 126.645 464.846 124.732 479.004 125.245C479.88 125.277 479.663 126.626 478.792 126.595Z" fill="white"/>
<path d="M413.145 142.094C411.239 138.191 410.783 133.737 411.858 129.529C412.933 125.32 415.469 121.631 419.013 119.12C419.732 118.614 420.551 119.707 419.832 120.213C416.527 122.546 414.165 125.983 413.172 129.904C412.179 133.825 412.621 137.972 414.417 141.596C414.806 142.384 413.532 142.878 413.145 142.094Z" fill="white"/>
<path d="M388.307 170.183C396.678 173.146 405.857 172.845 414.016 169.34C414.824 168.992 415.321 170.264 414.514 170.612C406.018 174.243 396.464 174.537 387.761 171.435C386.931 171.139 387.483 169.889 388.307 170.183Z" fill="white"/>
<path d="M450.518 128.447C450.941 130.111 451.77 131.644 452.931 132.908C454.093 134.172 455.55 135.128 457.172 135.69C458.005 135.975 457.453 137.225 456.625 136.942C454.836 136.313 453.228 135.255 451.941 133.861C450.655 132.467 449.73 130.779 449.246 128.945C449.186 128.776 449.193 128.591 449.264 128.426C449.336 128.262 449.468 128.131 449.633 128.06C449.802 127.995 449.989 127.999 450.155 128.072C450.321 128.144 450.451 128.279 450.518 128.447Z" fill="white"/>
<path d="M52.6016 375.357C24.4512 362.39 1.35001 335.04 0.702423 304.054C27.3641 324.672 60.4598 335.196 94.1337 333.763C107.118 333.163 121.498 331.144 131.922 338.908C138.409 343.74 142.028 351.662 143.327 359.645C144.626 367.628 143.861 375.786 143.092 383.837L143.847 385.71C113.038 389.08 80.752 388.324 52.6016 375.357Z" fill="#F0F0F0"/>
<path d="M1.34488 303.952C14.4068 326.032 34.0936 343.434 57.609 353.688C62.6603 355.854 67.9729 357.612 73.4736 358.107C78.8389 358.548 84.2245 357.544 89.0707 355.2C93.6332 353.105 98.0576 350.433 103.05 349.484C108.312 348.483 113.443 350.012 117.683 353.192C122.871 357.082 126.352 362.604 129.568 368.123C133.139 374.251 136.751 380.672 142.784 384.712C143.515 385.202 142.712 386.307 141.982 385.819C131.486 378.789 128.489 365.476 119.777 356.811C115.712 352.768 110.404 349.925 104.53 350.635C99.3935 351.256 94.8287 354.007 90.2273 356.168C85.3958 358.437 80.4581 359.785 75.0826 359.579C69.5838 359.368 64.1912 357.814 59.1067 355.787C47.6113 351.103 36.9237 344.641 27.4356 336.638C16.5561 327.564 7.30909 316.696 0.0945674 304.503C-0.351683 303.748 0.901578 303.203 1.34488 303.952Z" fill="white"/>
<path d="M49.8428 350.832C47.5869 354.544 44.0849 357.333 39.9624 358.701C35.8399 360.069 31.3653 359.928 27.3377 358.301C26.5239 357.969 27.0013 356.689 27.8162 357.022C31.564 358.543 35.7321 358.675 39.5684 357.393C43.4046 356.111 46.6563 353.5 48.7365 350.031C49.1894 349.278 50.2932 350.083 49.8428 350.832Z" fill="white"/>
<path d="M86.8972 356.567C84.87 347.922 79.659 340.359 72.3033 335.385C71.5741 334.893 72.3763 333.788 73.1046 334.279C80.7495 339.469 86.1563 347.35 88.246 356.351C88.4446 357.209 87.0947 357.42 86.8972 356.567Z" fill="white"/>
<path d="M18.1735 326.748C19.3456 325.494 20.1878 323.968 20.6246 322.308C21.0613 320.648 21.0788 318.905 20.6756 317.236C20.4662 316.381 21.8164 316.171 22.0245 317.021C22.4614 318.866 22.4397 320.791 21.9612 322.626C21.4828 324.462 20.5621 326.152 19.2797 327.55C19.1699 327.692 19.0102 327.786 18.833 327.815C18.6558 327.843 18.4746 327.803 18.326 327.702C18.18 327.595 18.0821 327.435 18.0536 327.257C18.025 327.078 18.0681 326.895 18.1735 326.748Z" fill="white"/>
<path d="M80.153 235.501C80.2989 236.031 80.4448 236.561 80.6016 237.095C82.6003 244.213 85.1739 251.157 88.2972 257.859C88.5304 258.381 88.7746 258.906 89.0224 259.42C96.7191 275.485 107.331 289.981 120.32 302.172C125.493 307.018 131.027 311.464 136.874 315.47C144.95 321.003 154.147 326.359 159.758 334.012C160.352 334.803 160.897 335.631 161.389 336.49L146.073 384.644C145.984 384.736 145.905 384.832 145.815 384.924L145.291 386.875C144.975 386.689 144.651 386.49 144.335 386.305C144.152 386.198 143.971 386.08 143.787 385.973C143.666 385.899 143.545 385.823 143.431 385.763C143.39 385.738 143.35 385.713 143.32 385.692C143.207 385.631 143.107 385.563 143.004 385.506C141.192 384.397 139.383 383.274 137.58 382.136C137.569 382.132 137.569 382.132 137.561 382.118C123.841 373.411 110.728 363.482 99.5383 351.878C99.2017 351.528 98.854 351.176 98.5245 350.805C93.5097 345.547 88.9332 339.887 84.8405 333.883C82.6101 330.588 80.5478 327.182 78.6618 323.679C73.8058 314.617 70.4055 304.848 68.5853 294.73C64.9598 274.559 67.8257 253.453 79.2664 236.767C79.5594 236.34 79.849 235.924 80.153 235.501Z" fill="#F0F0F0"/>
<path d="M80.7297 235.803C77.8655 261.297 83.1068 287.044 95.7092 309.389C98.4382 314.16 101.622 318.762 105.716 322.469C109.734 326.051 114.639 328.492 119.92 329.538C124.824 330.612 129.965 331.143 134.523 333.391C139.327 335.76 142.503 340.07 143.974 345.162C145.774 351.392 145.228 357.896 144.474 364.239C143.636 371.282 142.654 378.583 145.038 385.441C145.327 386.272 144.02 386.672 143.732 385.842C139.584 373.91 145.206 361.476 143.467 349.313C142.656 343.637 140.129 338.172 135.011 335.202C130.536 332.605 125.235 332.053 120.26 331.008C115.036 329.911 110.282 328.014 106.114 324.613C101.851 321.134 98.4807 316.647 95.6417 311.967C89.2829 301.306 84.6399 289.712 81.8827 277.609C78.6594 263.814 77.8196 249.569 79.3998 235.49C79.498 234.619 80.8272 234.938 80.7297 235.803Z" fill="white"/>
<path d="M91.2278 302.433C87.1918 304.039 82.7165 304.157 78.6012 302.768C74.4858 301.378 70.9984 298.571 68.7618 294.847C68.3118 294.092 69.4638 293.358 69.9144 294.114C71.9908 297.585 75.2395 300.199 79.0744 301.486C82.9092 302.772 87.0775 302.645 90.8269 301.127C91.6421 300.799 92.0383 302.106 91.2278 302.433Z" fill="white"/>
<path d="M117.361 329.321C120.947 321.198 121.34 312.022 118.461 303.623C118.175 302.791 119.481 302.391 119.767 303.222C122.747 311.968 122.318 321.516 118.568 329.961C118.21 330.766 117.005 330.121 117.361 329.321Z" fill="white"/>
<path d="M153.477 203.225C150.143 203.229 146.947 204.555 144.59 206.912C142.233 209.269 140.907 212.465 140.904 215.798C136.123 250.995 134.527 286.55 136.134 322.033C136.229 324.299 136.335 326.371 136.458 328.37C136.636 331.672 136.863 335.158 137.131 338.732C137.285 340.84 137.447 342.955 137.625 345.063C137.923 348.497 138.25 351.985 138.598 355.432C138.817 357.537 139.044 359.653 139.287 361.76C139.753 365.899 140.28 370.142 140.9 374.731C140.894 378.073 142.215 381.281 144.574 383.649C146.932 386.017 150.135 387.351 153.477 387.358H364.378C367.712 387.355 370.907 386.029 373.264 383.672C375.622 381.315 376.947 378.119 376.951 374.785L376.961 374.698C377.9 370.418 378.775 366.057 379.562 361.734C379.982 359.455 380.345 357.385 380.672 355.406C381.264 351.804 381.79 348.317 382.235 345.043C382.54 342.844 382.815 340.716 383.054 338.713C383.446 335.436 383.802 332.049 384.139 328.358C384.324 326.351 384.494 324.279 384.658 322.023V322.022C387.237 286.457 384.644 250.706 376.961 215.885L376.951 215.798C376.947 212.465 375.622 209.269 373.264 206.912C370.907 204.555 367.712 203.229 364.378 203.225L153.477 203.225Z" fill="#9ABC0E"/>
<path d="M267.115 257.051C221.418 257.051 172.996 252.899 109.621 244.591H109.615C106.329 244.587 103.161 243.37 100.718 241.174C98.2741 238.977 96.7273 235.956 96.3736 232.69C96.3159 232.199 96.2879 231.705 96.29 231.21V193.086C96.2885 193.004 96.2922 192.923 96.3011 192.842C96.3724 189.339 97.8115 186.003 100.311 183.547C102.81 181.092 106.17 179.711 109.674 179.702C219.932 164.71 286.909 164.712 408.231 179.705H408.236C411.738 179.728 415.092 181.12 417.581 183.583C420.07 186.045 421.497 189.384 421.557 192.885C421.564 192.952 421.567 193.019 421.565 193.086V231.21C421.567 231.706 421.539 232.202 421.481 232.694C421.122 235.969 419.565 238.995 417.11 241.192C414.655 243.389 411.475 244.6 408.181 244.594C355.764 252.898 312.802 257.051 267.115 257.051Z" fill="#DBFC54"/>
<path d="M274.446 283.53H246.719C243.19 283.526 239.807 282.122 237.312 279.627C234.816 277.132 233.413 273.749 233.409 270.22V169.489C233.413 165.96 234.816 162.576 237.312 160.081C239.807 157.586 243.19 156.182 246.719 156.178H274.446C277.975 156.182 281.358 157.586 283.853 160.081C286.349 162.576 287.752 165.96 287.756 169.489V270.22C287.752 273.749 286.349 277.132 283.853 279.627C281.358 282.123 277.975 283.526 274.446 283.53Z" fill="#9ABC0E"/>
<path d="M337.394 136.903C337.193 135.015 336.84 133.146 336.337 131.314C335.794 129.479 335.107 127.69 334.282 125.964C331.324 119.617 326.336 114.437 320.104 111.243C312.37 107.435 303.524 107.124 295.208 108.958C288.218 110.524 281.654 113.597 275.975 117.962C273.031 120.181 270.341 122.718 267.954 125.528C265.49 128.484 260.907 136.606 260.577 137.358C257.985 131.475 254.267 126.156 249.632 121.702C244.244 116.588 237.813 112.701 230.78 110.309C227.041 109.049 223.16 108.26 219.226 107.96C215.063 107.614 210.871 107.98 206.831 109.041C199.574 111.074 193.297 115.662 189.158 121.96C185.214 127.814 183.278 134.789 183.639 141.838C183.838 145.397 184.606 148.901 185.912 152.217C186.612 154.013 187.442 155.755 188.396 157.429C189.383 159.083 190.487 160.664 191.699 162.161C196.454 167.997 202.859 172.262 210.077 174.399C217.783 176.781 225.958 176.859 233.882 175.74C242.019 174.592 249.852 171.958 257.516 169.073C258.538 168.688 259.556 168.292 260.576 167.9C267.389 170.521 274.26 173.049 281.392 174.654C289.416 176.591 297.744 176.925 305.897 175.636C313.496 174.389 320.562 170.938 326.217 165.711C331.449 160.786 335.111 154.427 336.744 147.43C337.55 143.982 337.77 140.424 337.394 136.903ZM231.765 167.904C227.367 168.468 222.917 168.494 218.513 167.982C215.356 167.524 212.264 166.701 209.297 165.529C202.305 162.617 196.731 157.083 193.769 150.112C192.884 147.914 192.254 145.622 191.89 143.281C191.657 141.198 191.657 139.096 191.889 137.013C192.234 134.821 192.825 132.676 193.651 130.617C194.544 128.614 195.653 126.715 196.959 124.953C198.225 123.377 199.656 121.94 201.227 120.667C202.716 119.565 204.318 118.626 206.007 117.866C208.022 117.078 210.119 116.517 212.259 116.193C215.157 115.872 218.083 115.895 220.975 116.261C224.417 116.793 227.786 117.721 231.014 119.029C234.448 120.519 237.693 122.411 240.682 124.665C243.447 126.856 245.953 129.354 248.152 132.113C250.33 135.009 252.156 138.153 253.592 141.479C254.987 144.95 255.968 148.573 256.513 152.274L256.519 152.328C256.306 154.188 256.2 156.058 256.2 157.929C256.202 158.65 256.233 159.37 256.269 160.09C255.927 160.42 255.641 160.804 255.424 161.227C249.774 163.444 243.982 165.281 238.087 166.726C235.998 167.208 233.89 167.601 231.765 167.904ZM329.279 143.281C328.916 145.623 328.285 147.915 327.4 150.113C324.452 157.093 318.874 162.632 311.872 165.529C308.906 166.701 305.813 167.524 302.657 167.982C298.244 168.495 293.786 168.468 289.38 167.901C281.554 166.782 274.005 164.312 266.62 161.555C266.316 161.442 266.015 161.322 265.711 161.208C265.505 160.791 265.232 160.411 264.902 160.083C265.033 157.471 264.952 154.853 264.66 152.254C265.206 148.56 266.185 144.944 267.578 141.479C269.014 138.153 270.84 135.009 273.017 132.113C275.216 129.355 277.723 126.856 280.488 124.665C283.476 122.411 286.721 120.519 290.155 119.029C293.383 117.721 296.752 116.793 300.195 116.261C303.087 115.895 306.013 115.872 308.911 116.193C311.05 116.517 313.147 117.078 315.163 117.866C316.852 118.626 318.454 119.565 319.943 120.667C321.514 121.94 322.945 123.377 324.211 124.953C325.516 126.715 326.626 128.614 327.519 130.617C328.345 132.676 328.936 134.821 329.281 137.013C329.513 139.096 329.512 141.198 329.279 143.281Z" fill="#9ABC0E"/>
<path d="M176.189 287.991C178.877 287.991 181.056 285.812 181.056 283.125C181.056 280.437 178.877 278.258 176.189 278.258C173.501 278.258 171.322 280.437 171.322 283.125C171.322 285.812 173.501 287.991 176.189 287.991Z" fill="#DBFC54"/>
<path d="M211.069 275.824C213.757 275.824 215.936 273.645 215.936 270.957C215.936 268.269 213.757 266.09 211.069 266.09C208.381 266.09 206.202 268.269 206.202 270.957C206.202 273.645 208.381 275.824 211.069 275.824Z" fill="#DBFC54"/>
<path d="M195.657 313.949C198.345 313.949 200.524 311.77 200.524 309.082C200.524 306.394 198.345 304.215 195.657 304.215C192.969 304.215 190.79 306.394 190.79 309.082C190.79 311.77 192.969 313.949 195.657 313.949Z" fill="#DBFC54"/>
<path d="M340.043 287.991C342.731 287.991 344.91 285.812 344.91 283.125C344.91 280.437 342.731 278.258 340.043 278.258C337.355 278.258 335.176 280.437 335.176 283.125C335.176 285.812 337.355 287.991 340.043 287.991Z" fill="#DBFC54"/>
<path d="M305.163 275.824C307.851 275.824 310.03 273.645 310.03 270.957C310.03 268.269 307.851 266.09 305.163 266.09C302.476 266.09 300.297 268.269 300.297 270.957C300.297 273.645 302.476 275.824 305.163 275.824Z" fill="#DBFC54"/>
<path d="M320.576 313.949C323.263 313.949 325.442 311.77 325.442 309.082C325.442 306.394 323.263 304.215 320.576 304.215C317.888 304.215 315.709 306.394 315.709 309.082C315.709 311.77 317.888 313.949 320.576 313.949Z" fill="#DBFC54"/>
<path d="M344.099 373.163C346.787 373.163 348.966 370.984 348.966 368.296C348.966 365.608 346.787 363.429 344.099 363.429C341.411 363.429 339.232 365.608 339.232 368.296C339.232 370.984 341.411 373.163 344.099 373.163Z" fill="#DBFC54"/>
<path d="M356.267 338.283C358.954 338.283 361.133 336.104 361.133 333.416C361.133 330.728 358.954 328.549 356.267 328.549C353.579 328.549 351.4 330.728 351.4 333.416C351.4 336.104 353.579 338.283 356.267 338.283Z" fill="#DBFC54"/>
<path d="M318.142 353.695C320.83 353.695 323.009 351.516 323.009 348.828C323.009 346.14 320.83 343.961 318.142 343.961C315.454 343.961 313.275 346.14 313.275 348.828C313.275 351.516 315.454 353.695 318.142 353.695Z" fill="#DBFC54"/>
<path d="M204.58 373.163C207.268 373.163 209.447 370.984 209.447 368.296C209.447 365.608 207.268 363.429 204.58 363.429C201.892 363.429 199.713 365.608 199.713 368.296C199.713 370.984 201.892 373.163 204.58 373.163Z" fill="#DBFC54"/>
<path d="M216.747 338.283C219.435 338.283 221.614 336.104 221.614 333.416C221.614 330.728 219.435 328.549 216.747 328.549C214.059 328.549 211.88 330.728 211.88 333.416C211.88 336.104 214.059 338.283 216.747 338.283Z" fill="#DBFC54"/>
<path d="M178.623 353.695C181.311 353.695 183.49 351.516 183.49 348.828C183.49 346.14 181.311 343.961 178.623 343.961C175.935 343.961 173.756 346.14 173.756 348.828C173.756 351.516 175.935 353.695 178.623 353.695Z" fill="#DBFC54"/>
<path d="M318.461 29.4261C320.304 30.1954 322.314 30.4771 324.298 30.2441C326.281 30.0111 328.171 29.2712 329.786 28.0957C333.902 25.0259 335.445 19.6674 336.737 14.6989L340.555 0L334.107 3.91486C329.469 6.72968 324.726 9.63776 321.378 13.9111C318.031 18.1845 316.338 24.1729 318.544 29.1318" fill="#F2F2F2"/>
<path d="M146.003 154.984C147.248 153.422 148.069 151.566 148.388 149.595C148.708 147.624 148.514 145.603 147.825 143.728C146 138.929 141.269 135.977 136.845 133.374L123.753 125.676L125.753 132.95C127.19 138.181 128.687 143.54 131.88 147.929C135.074 152.319 140.369 155.588 145.743 154.824" fill="#F2F2F2"/>
<path d="M453.433 381.298C454.677 379.736 455.499 377.88 455.818 375.908C456.137 373.937 455.943 371.917 455.255 370.042C453.43 365.242 448.698 362.291 444.274 359.687L431.183 351.989L433.182 359.263C434.619 364.494 436.117 369.853 439.31 374.243C442.503 378.632 447.799 381.901 453.172 381.138" fill="#F2F2F2"/>
<path d="M206.202 94.1244C209.786 94.1244 212.691 91.2191 212.691 87.6352C212.691 84.0512 209.786 81.1459 206.202 81.1459C202.618 81.1459 199.713 84.0512 199.713 87.6352C199.713 91.2191 202.618 94.1244 206.202 94.1244Z" fill="#DBFC54"/>
<path d="M33.4251 285.558C37.009 285.558 39.9144 282.653 39.9144 279.069C39.9144 275.485 37.009 272.579 33.4251 272.579C29.8412 272.579 26.9358 275.485 26.9358 279.069C26.9358 282.653 29.8412 285.558 33.4251 285.558Z" fill="#DBFC54"/>
<path d="M479.563 232.833C483.147 232.833 486.052 229.927 486.052 226.343C486.052 222.759 483.147 219.854 479.563 219.854C475.979 219.854 473.073 222.759 473.073 226.343C473.073 229.927 475.979 232.833 479.563 232.833Z" fill="#DBFC54"/>
<path d="M26.9359 122.515C30.5198 122.515 33.4251 119.61 33.4251 116.026C33.4251 112.442 30.5198 109.536 26.9359 109.536C23.3519 109.536 20.4466 112.442 20.4466 116.026C20.4466 119.61 23.3519 122.515 26.9359 122.515Z" fill="#E6E6E6"/>
<path d="M428.46 307.459C432.044 307.459 434.949 304.554 434.949 300.97C434.949 297.386 432.044 294.481 428.46 294.481C424.876 294.481 421.97 297.386 421.97 300.97C421.97 304.554 424.876 307.459 428.46 307.459Z" fill="#E6E6E6"/>
<path d="M441.438 110.348C445.022 110.348 447.927 107.442 447.927 103.858C447.927 100.274 445.022 97.369 441.438 97.369C437.854 97.369 434.949 100.274 434.949 103.858C434.949 107.442 437.854 110.348 441.438 110.348Z" fill="#E6E6E6"/>
<path d="M156.906 213.556C156.345 214.444 154.984 214.315 154.221 213.76C153.16 212.99 153.504 211.507 154.234 210.63C156.554 207.845 160.392 210.786 160.91 213.552C161.102 214.901 160.894 216.277 160.312 217.508C159.73 218.74 158.799 219.774 157.635 220.482C154.987 222.051 151.549 221.264 149.272 219.386C144.524 215.469 145.817 207.627 151.091 204.793C154.457 202.985 158.712 203.779 162.028 205.294C165.76 206.999 168.97 209.613 172.422 211.791C179.995 216.532 188.562 219.457 197.454 220.339C199.01 220.498 198.999 218.063 197.454 217.905C192.527 217.396 187.689 216.231 183.07 214.442C178.5 212.59 174.163 210.209 170.146 207.348C166.082 204.563 161.836 201.856 156.806 201.396C154.777 201.159 152.721 201.464 150.847 202.279C148.973 203.094 147.349 204.391 146.139 206.038C145.062 207.511 144.342 209.214 144.034 211.013C143.726 212.811 143.838 214.657 144.363 216.404C144.995 218.232 146.1 219.859 147.565 221.121C149.031 222.383 150.804 223.234 152.705 223.587C154.536 223.933 156.428 223.699 158.119 222.918C159.81 222.137 161.215 220.847 162.138 219.229C163.989 216.028 163.929 211.727 161.133 209.073C160.331 208.258 159.328 207.671 158.225 207.371C157.122 207.071 155.96 207.069 154.856 207.365C153.839 207.709 152.944 208.341 152.281 209.185C151.618 210.029 151.215 211.048 151.122 212.118C150.852 216.274 156.752 218.352 159.007 214.785C159.846 213.457 157.741 212.235 156.906 213.556Z" fill="#9ABC0E"/>
<path d="M365.005 213.556C365.566 214.444 366.926 214.315 367.69 213.76C368.75 212.99 368.407 211.507 367.677 210.63C365.356 207.845 361.519 210.786 361.001 213.552C360.808 214.901 361.016 216.277 361.598 217.508C362.18 218.74 363.111 219.774 364.276 220.482C366.923 222.051 370.362 221.264 372.638 219.386C377.387 215.469 376.094 207.627 370.82 204.793C367.454 202.985 363.198 203.779 359.883 205.294C356.15 206.999 352.941 209.613 349.489 211.791C341.915 216.532 333.348 219.457 324.457 220.339C322.9 220.498 322.911 218.063 324.457 217.905C329.384 217.396 334.221 216.231 338.84 214.442C343.41 212.59 347.748 210.209 351.765 207.348C355.829 204.563 360.075 201.856 365.104 201.396C367.134 201.159 369.19 201.464 371.064 202.279C372.938 203.094 374.562 204.391 375.772 206.038C376.848 207.511 377.569 209.214 377.877 211.013C378.185 212.811 378.072 214.657 377.548 216.404C376.916 218.232 375.811 219.859 374.346 221.121C372.88 222.383 371.107 223.234 369.205 223.587C367.375 223.933 365.482 223.699 363.792 222.918C362.101 222.137 360.696 220.847 359.773 219.229C357.922 216.028 357.982 211.727 360.778 209.073C361.579 208.258 362.583 207.67 363.686 207.371C364.788 207.071 365.951 207.069 367.055 207.365C368.072 207.709 368.966 208.341 369.629 209.185C370.293 210.029 370.695 211.048 370.789 212.118C371.058 216.273 365.159 218.352 362.904 214.785C362.065 213.457 364.17 212.235 365.005 213.556Z" fill="#9ABC0E"/>
<path d="M72.2213 29.496L69.0068 33.5287L57.639 26.8042L60.8528 22.7715L72.2213 29.496Z" fill="#E4E4E4"/>
<path d="M84.0825 46.8225L86.9213 51.0593L74.979 56.9993L72.1403 52.7633L84.0825 46.8225Z" fill="#E4E4E4"/>
<path d="M96.4448 28.4041L102.118 28.6051L101.553 40.4753L95.8793 40.2751L96.4448 28.4041Z" fill="#E4E4E4"/>
<path d="M473.745 277.711L470.531 281.744L459.163 275.019L462.377 270.986L473.745 277.711Z" fill="#E4E4E4"/>
<path d="M485.606 295.037L488.445 299.274L476.503 305.214L473.664 300.977L485.606 295.037Z" fill="#E4E4E4"/>
<path d="M497.969 276.619L503.642 276.82L503.077 288.69L497.403 288.49L497.969 276.619Z" fill="#E4E4E4"/>
</g>
<defs>
<clipPath id="clip0_10_7">
<rect width="503.642" height="387.414" fill="white"/>
</clipPath>
</defs>
</svg>
