<svg width="405" height="405" viewBox="0 0 405 405" fill="none" xmlns="http://www.w3.org/2000/svg">
<path d="M258.085 68.04L303.7 80.1457C304.89 80.3885 305.856 81.3607 306.13 82.5575L318.156 128.173C318.48 129.512 319.658 130.454 321.028 130.454C322.412 130.454 323.577 129.512 323.888 128.173L335.932 82.5575C336.187 81.3615 337.159 80.3885 338.349 80.1457L383.971 68.04C385.304 67.79 386.252 66.6003 386.252 65.2295C386.252 63.846 385.304 62.6809 383.971 62.4135L338.349 50.3133C337.159 50.0586 336.187 49.0983 335.932 47.9023L323.888 2.28683C323.576 0.959502 322.411 0 321.028 0C319.658 0 318.479 0.959502 318.156 2.28683L306.13 47.9023C305.856 49.0983 304.891 50.0586 303.7 50.3133L258.085 62.4135C256.738 62.6817 255.804 63.8468 255.804 65.2295C255.804 66.6003 256.739 67.7908 258.085 68.04Z" fill="#DBFC54"/>
<path d="M304.741 258.29L284.035 252.801C283.494 252.677 283.051 252.253 282.933 251.705L277.475 231C277.332 230.396 276.802 229.966 276.173 229.966C275.556 229.966 275.02 230.396 274.871 231L269.413 251.705C269.288 252.253 268.852 252.677 268.31 252.801L247.612 258.29C247.001 258.409 246.571 258.945 246.571 259.568C246.571 260.191 247.001 260.727 247.612 260.852L268.31 266.335C268.852 266.447 269.288 266.896 269.413 267.444L274.871 288.136C275.02 288.74 275.556 289.171 276.173 289.171C276.802 289.171 277.332 288.74 277.475 288.136L282.933 267.444C283.051 266.896 283.494 266.447 284.035 266.335L304.741 260.852C305.339 260.727 305.776 260.191 305.776 259.568C305.775 258.944 305.339 258.409 304.741 258.29Z" fill="#DBFC54"/>
<path d="M29.9329 110.802L62.5259 119.437C63.3849 119.618 64.0652 120.31 64.2701 121.169L72.8557 153.762C73.0923 154.728 73.9339 155.395 74.9124 155.395C75.8964 155.395 76.7317 154.728 76.9627 153.762L85.5547 121.169C85.7359 120.31 86.4399 119.618 87.2934 119.437L119.893 110.802C120.846 110.602 121.525 109.742 121.525 108.77C121.525 107.798 120.846 106.964 119.893 106.764L87.2934 98.1152C86.4399 97.9285 85.7359 97.2562 85.5547 96.3955L76.9627 63.7843C76.7317 62.8367 75.8972 62.1643 74.9124 62.1643C73.9347 62.1643 73.0931 62.8367 72.8557 63.7843L64.2701 96.3963C64.0644 97.2562 63.3849 97.9285 62.5259 98.116L29.9329 106.765C28.9607 106.964 28.2939 107.799 28.2939 108.771C28.2939 109.742 28.9607 110.603 29.9329 110.802Z" fill="#DBFC54"/>
<path d="M313.713 219.03C307.482 211.74 298.578 205.273 287.6 199.852H287.612C265.717 189.01 235.692 182.375 202.513 182.356L202.419 182.362V182.356C180.63 182.362 160.181 185.222 142.504 190.257C124.827 195.291 109.949 202.469 99.2313 211.192L99.2495 211.18C92.0908 216.999 86.8258 223.492 83.9037 230.552C82.2331 234.558 81.3551 238.782 81.3614 243.062C81.3614 246.583 84.2154 249.443 87.7418 249.443C91.2689 249.443 94.1221 246.583 94.1221 243.062C94.1284 240.489 94.6149 238.041 95.6923 235.424C97.5551 230.888 101.362 225.891 107.288 221.093L107.306 221.08C116.129 213.853 129.6 207.173 145.999 202.532C162.399 197.852 181.752 195.117 202.419 195.123H202.755C234.103 195.129 262.421 201.566 281.936 211.286L281.955 211.292C291.749 216.115 299.308 221.784 304.012 227.317C306.38 230.091 308.062 232.813 309.14 235.424C310.486 238.683 314.212 240.228 317.471 238.882C320.73 237.536 322.275 233.81 320.929 230.552C319.264 226.526 316.835 222.669 313.713 219.03Z" fill="#292929"/>
<path d="M384.364 215.129C381.672 208.637 377.99 202.6 373.547 197.023C369.104 191.453 363.908 186.331 358.125 181.62L357.771 181.334L358.113 181.62C340.742 167.502 317.881 156.71 291.401 149.133H291.394C264.889 141.6 234.651 137.395 202.5 137.395C178.001 137.395 154.622 139.837 133.152 144.33C111.68 148.822 92.1161 155.364 75.243 163.701L75.2303 163.707C58.3761 172.069 44.0453 182.25 33.4093 194.667L33.6023 194.43L33.403 194.667C28.0945 200.886 23.7083 207.709 20.636 215.129C17.5582 222.556 15.8448 230.563 15.8504 238.806V303.569C15.8448 311.819 17.5582 319.831 20.636 327.258C23.3278 333.751 27.0108 339.782 31.4531 345.358C35.9018 350.935 41.0917 356.05 46.8732 360.761L46.8859 360.767C64.2573 374.873 87.1114 385.69 113.592 393.253L113.735 393.285C140.211 400.794 170.399 404.994 202.5 405H202.506C226.999 404.994 250.377 402.551 271.848 398.059C293.32 393.566 312.884 387.018 329.757 378.687L329.769 378.675C346.623 370.312 360.948 360.126 371.59 347.72L371.596 347.708C376.905 341.502 381.285 334.687 384.357 327.259L384.164 327.714L384.363 327.259C387.435 319.831 389.149 311.819 389.149 303.57V238.807C389.149 230.563 387.435 222.556 384.364 215.129ZM57.616 337.296C55.6535 335.446 53.8215 333.564 52.1896 331.663C48.32 327.128 45.4161 322.486 43.4782 317.813C41.5402 313.128 40.5688 308.411 40.5688 303.57V274.21C44.3506 278.877 48.8183 283.282 53.8713 287.408C55.0871 288.385 56.333 289.352 57.616 290.311V337.296ZM93.4055 359.858C90.9446 358.787 88.521 357.689 86.1962 356.531C80.7817 353.852 75.7967 350.992 71.2491 348.008V299.221C78.0345 303.116 85.4487 306.685 93.4055 309.901V359.858ZM137.725 373.759C126.497 371.384 115.961 368.412 106.247 364.942H107.05V314.879C110.172 315.913 113.375 316.891 116.639 317.826C123.394 319.745 130.447 321.427 137.725 322.892V373.759ZM195.677 380.207C180.238 379.896 165.396 378.488 151.364 376.22V325.277C165.477 327.458 180.318 328.735 195.677 329.035V380.207ZM255.343 375.914C240.813 378.338 225.398 379.858 209.322 380.17V329.065C225.298 328.753 240.732 327.364 255.343 325.046V375.914ZM299.663 364.631C294.853 366.376 289.843 367.995 284.627 369.478C279.593 370.911 274.347 372.188 268.976 373.359V322.554C279.774 320.323 290.042 317.545 299.663 314.298V364.631ZM335.458 346.848C329.003 351.272 321.576 355.384 313.295 359.122V309.189C317.283 307.537 321.152 305.805 324.847 303.98C328.542 302.142 332.075 300.217 335.458 298.222V346.848ZM364.431 303.569C364.431 308.41 363.46 313.128 361.515 317.812C359.023 323.868 354.842 329.894 349.091 335.67V289.6H348.281C353.938 285.281 358.954 280.677 363.173 275.749C363.602 275.244 364.014 274.733 364.43 274.222V303.569H364.431ZM361.515 253.038C358.151 261.212 351.733 269.325 342.512 276.833C328.71 288.098 308.691 297.869 284.628 304.703C260.572 311.557 232.483 315.514 202.501 315.514C156.823 315.533 115.506 306.292 86.197 291.756C71.5426 284.51 59.9281 275.962 52.1896 266.883C48.32 262.353 45.4161 257.711 43.4782 253.039C41.5402 248.353 40.5688 243.642 40.5688 238.808C40.5688 233.973 41.5402 229.262 43.4782 224.576C46.8558 216.396 53.2607 208.283 62.4886 200.787C76.2966 189.515 96.3093 179.74 120.373 172.905C144.43 166.058 172.524 162.107 202.501 162.107C248.179 162.081 289.488 171.328 318.798 185.859C333.459 193.099 345.079 201.66 352.806 210.725C356.681 215.255 359.585 219.897 361.516 224.576C363.461 229.262 364.432 233.971 364.432 238.807C364.432 243.642 363.46 248.352 361.515 253.038Z" fill="#292929"/>
</svg>
